<svg width="100" height="100" viewBox="0 0 100 100" fill="none" xmlns="http://www.w3.org/2000/svg">
<path d="M1 56.8141C1 76.8401 13.3205 92 33.5354 92C46.5551 92 61.1362 83.8173 69.8666 72.6419C69.8666 72.6419 71.4976 72.8839 72.5779 72.9298C77.2252 73.1269 80.397 69.8796 81.5251 65.4091C83.6942 56.8141 77.7293 52.2479 77.7293 52.2479C77.7293 32.2219 56.1905 27 35.9756 27C15.7607 27 1 36.788 1 56.8141Z" fill="white" stroke="black"/>
<path d="M28 68H20L24 74L28 68Z" fill="#586362"/>
<path d="M55 58H36.3933C36.3933 58 40.7169 66.9244 45.5618 66.9995C50.485 67.0759 55 58 55 58Z" fill="black"/>
<path d="M7 58H20.2135C20.2135 58 16.717 65.3852 12.9326 64.9674C9.52183 64.5908 7 58 7 58Z" fill="black"/>
<path d="M55 58H36.3933C36.3933 58 40.7169 66.9244 45.5618 66.9995C50.485 67.0759 55 58 55 58Z" stroke="black"/>
<path d="M7 58H20.2135C20.2135 58 16.717 65.3852 12.9326 64.9674C9.52183 64.5908 7 58 7 58Z" stroke="black"/>
<path d="M55 58H36.3933C36.3933 58 40.7169 70.8907 45.5618 70.9993C50.485 71.1096 55 58 55 58Z" fill="url(#paint0_radial_2_9)"/>
<path d="M7 58H20.2135C20.2135 58 16.717 68.6676 12.9326 68.064C9.52183 67.52 7 58 7 58Z" fill="url(#paint1_radial_2_9)"/>
<ellipse cx="24" cy="81.5" rx="4" ry="0.5" fill="black"/>
<path fill-rule="evenodd" clip-rule="evenodd" d="M3.23687 41.4286C3.57239 41.8273 11.4512 43.9517 17.2655 45.7039C24.0667 47.7535 43.8144 50.1444 59.7947 49.4849C67.5341 49.1654 78.4615 48.2277 78.4615 48.2277L88.4797 51.6848C99.5748 54.1991 104.717 53.5705 89.5622 45.7039L78.9718 39.4279C78.836 38.5145 78.6684 37.6347 78.4615 36.8593C75.8959 27.245 73.5432 23.1949 66.7663 18.1088C60.7138 13.5664 54.0436 10.6397 47.1836 8.91042C38.4244 6.70244 30.6193 8.75428 22.1612 12.4483C18.8974 13.8737 12.7913 17.9463 8.01815 25.5383C2.64463 34.0852 2.69589 40.7857 3.23687 41.4286ZM38.1456 45.7039L18.1202 42.2468C18.1202 42.2468 15.8831 39.5182 16.2217 37.7857C16.6288 35.7026 20.5558 34.0852 20.5558 34.0852L38.1456 36.8593C38.1456 36.8593 43.0029 40.1429 42.1914 41.8571C41.3798 43.5714 38.1456 45.7039 38.1456 45.7039Z" fill="#353535"/>
<path d="M78.4615 48.2277C78.4615 48.2277 67.5341 49.1654 59.7947 49.4849C43.8144 50.1444 24.0667 47.7535 17.2655 45.7039C11.4512 43.9517 3.57239 41.8273 3.23687 41.4286C2.69589 40.7857 2.64463 34.0852 8.01815 25.5383C12.7913 17.9463 18.8974 13.8737 22.1612 12.4483C30.6193 8.75428 38.4244 6.70244 47.1836 8.91042C54.0436 10.6397 60.7138 13.5664 66.7663 18.1088C73.5432 23.1949 75.8959 27.245 78.4615 36.8593C78.6684 37.6347 78.836 38.5145 78.9718 39.4279M78.4615 48.2277L88.4797 51.6848C99.5748 54.1991 104.717 53.5705 89.5622 45.7039L78.9718 39.4279M78.4615 48.2277C78.4615 48.2277 79.5277 43.1685 78.9718 39.4279M18.1202 42.2468L38.1456 45.7039C38.1456 45.7039 41.3798 43.5714 42.1914 41.8571C43.0029 40.1429 38.1456 36.8593 38.1456 36.8593L20.5558 34.0852C20.5558 34.0852 16.6288 35.7026 16.2217 37.7857C15.8831 39.5182 18.1202 42.2468 18.1202 42.2468Z" stroke="black"/>
<defs>
<radialGradient id="paint0_radial_2_9" cx="0" cy="0" r="1" gradientUnits="userSpaceOnUse" gradientTransform="translate(30.7303 26.0417) rotate(90) scale(49.151 102.983)">
<stop/>
<stop offset="1" stop-opacity="0"/>
</radialGradient>
<radialGradient id="paint1_radial_2_9" cx="0" cy="0" r="1" gradientUnits="userSpaceOnUse" gradientTransform="translate(30.7303 26.0417) rotate(90) scale(49.151 102.983)">
<stop/>
<stop offset="1" stop-opacity="0"/>
</radialGradient>
</defs>
</svg>
